<?xml version="1.0" encoding="UTF-8" standalone="no"?>
<!-- Generator: Adobe Illustrator 13.0.2, SVG Export Plug-In . SVG Version: 6.00 Build 14948)  -->
<svg
    xmlns:rdf="http://www.w3.org/1999/02/22-rdf-syntax-ns#"
    xmlns:x="http://ns.adobe.com/Extensibility/1.0/"
    xmlns:dc="http://purl.org/dc/elements/1.1/"
    xmlns:i="http://ns.adobe.com/AdobeIllustrator/10.0/"
    xmlns:cc="http://web.resource.org/cc/"
    xmlns:xlink="http://www.w3.org/1999/xlink"
    xmlns:graph="http://ns.adobe.com/Graphs/1.0/"
    xmlns:svg="http://www.w3.org/2000/svg"
    xmlns:inkscape="http://www.inkscape.org/namespaces/inkscape"
    xmlns:sodipodi="http://sodipodi.sourceforge.net/DTD/sodipodi-0.dtd"
    xmlns:ns1="http://sozi.baierouge.fr"
    xmlns="http://www.w3.org/2000/svg"
    id="Layer_1"
    enable-background="new 0 0 195.434 185.613"
    xml:space="preserve"
    viewBox="0 0 195.434 185.613"
    version="1.1"
    y="0px"
    x="0px"
  >
<path
      d="m102.52 20.864c0.832 3.678 2.251 6.769 2.081 11.448-0.894 0.542-0.644 3.046-2.081 1.561 1.468 5.145-0.932 9.897-1.039 15.089-1.27-8.588-1.14-20.133 1.04-28.098zm-0.52 11.448c1.518 0.765 1.518-2.327 0-1.561v1.561z"
      fill="#41632F"
  />
<path
      d="m65.576 26.068c1.769 0.832 2.682 2.521 3.642 4.163-1.775-0.674-4.392-2.627-3.642-4.163z"
  />
<path
      d="m68.697 26.068c1.704 1.419 3.787 2.456 4.163 5.203-1.789-1.333-3.448-2.797-4.163-5.203z"
  />
<path
      d="m79.104 26.068c2.224 2.113 3.376 5.295 4.163 8.845-1.846-1.794-2.031-5.251-4.163-6.763-0.609 0.083-0.438 0.948-0.52 1.56-2.177-1.364 0.438-1.792 0.52-3.642z"
  />
<path
      d="m62.454 27.628c1.822 0.952 3.478 2.073 4.163 4.163-2.034-0.742-3.421-2.13-4.163-4.163z"
  />
<path
      d="m58.811 28.669c2.232-1.347 3.768 2.462 4.685 4.163-2.366-0.586-3.152-2.748-4.685-4.163z"
  />
<path
      d="m56.73 29.189c2.168-0.261 2.497 1.319 2.603 3.123-2.183 0.273-2.063-1.754-2.603-3.123z"
  />
<path
      d="m102 30.75c1.518-0.766 1.518 2.326 0 1.561v-1.561z"
  />
<path
      d="m88.99 32.312c1.843 1.453 2.93 3.661 3.121 6.765-2.118-1.178-2.173-4.418-3.121-6.765z"
  />
<path
      d="m99.917 34.913c0.198-0.99 0.66 0.333 0.521 1.041-0.2 0.99-0.665-0.333-0.523-1.041z"
      fill="#41632F"
  />
<path
      d="m153.51 37.515c-1.147 1.281-1.453 3.406-3.645 3.643 0.85-1.585 1.22-3.642 3.65-3.643z"
  />
<path
      d="m140.5 38.035c0.64 0.228 1.066 0.666 1.04 1.562-1.438 2.334-3.982 3.708-5.725 5.724-4.938 5.715-9.185 11.942-16.131 15.609 6.73-7.841 14.84-14.3 20.81-22.895z"
  />
<path
      d="m155.59 39.076c-1.41 1.536-2.405 3.489-4.684 4.163 0.92-2.027 2.07-3.832 4.68-4.163z"
  />
<path
      d="m156.11 41.677c1.056 2.114-3.238 3.337-4.161 5.203-1.91-1.044 3.39-3.42 4.16-5.203z"
  />
<path
      d="m157.68 43.239c0.309 2.23-4.745 6.342-6.246 6.764 1.67-2.67 4.55-4.126 6.25-6.764z"
  />
<path
      d="m122.29 44.279c0.562 0.128 0.351 1.034 1.039 1.041-1.749 5.882-4.084 11.178-9.364 13.528 3.03-4.603 6.57-8.693 8.32-14.569z"
  />
<path
      d="m115.53 44.799c-0.107 4.408-2.864 10.661-6.765 13.008 2.64-3.957 4.26-8.928 6.77-13.008z"
  />
<path
      d="m70.258 46.361c6.089 4.838 10.218 11.636 14.049 18.732-5.163-5.764-10.021-11.833-14.049-18.732z"
  />
<path
      d="m160.28 47.401c0.462 3.591-5.225 5.521-7.804 7.804 1.94-3.254 5.12-5.278 7.8-7.804z"
  />
<path
      d="m82.226 48.442c3.182 2.89 4.442 7.699 6.766 11.447-2.803 0.051-4.134-6.992-6.766-9.366v-2.081z"
  />
<path
      d="m160.28 51.043c0.61 0.084 0.44 0.948 0.521 1.562-4.33 1.611-6.958 7.553-10.928 7.805 3.25-3.344 7.13-6.055 10.41-9.367z"
  />
<path
      d="m137.9 54.166c0.933-0.147 1.069 0.491 0.521 0.52-3.186 5.14-7.31 9.34-14.048 10.927 4.6-3.723 10.46-6.188 13.53-11.447z"
  />
<path
      d="m159.75 55.206c0.364 2.688-3.176 3.921-5.202 5.724-2.108 1.877-3.989 4.484-6.244 5.724-0.351-3.132 5.774-4.28 6.763-7.805 2-0.775 3.55-2.005 4.68-3.643z"
  />
<path
      d="m64.535 56.767c5.417 3.082 8.535 8.462 12.486 13.008-5.52-2.112-6.89-8.374-11.968-10.927 0.069-0.932-0.635-1.098-0.518-2.081z"
  />
<path
      d="m113.97 60.41c-0.483 1.252-0.951 2.52-1.562 3.642 1.118 2.428 5.019 0.697 3.643-2.601 3.642 1.023 1.05 4.812-1.04 5.724-1.706-0.966-2.547-0.476-4.162-2.082-1.017 5.421-4.414 10.579-4.684 15.089-1.408-3.327 0.879-7.44 2.081-9.886-1.68-1.278-5.989-6.187-1.561-7.286-0.1 2.354-0.426 4.938 2.603 4.164-0.308-1.603-0.135-3.683-2.083-3.643 0.428-1.972 3.438-0.8 3.123 1.041 1.7-0.893 0.88-4.318 3.64-4.162z"
  />
<path
      d="m95.234 69.775c-1.292-0.324-1.005-1.156-1.561-3.122-1.978 0.474-0.381 2.091-0.521 3.643-1.84-2.15-3.884-4.095-6.243-5.724-0.248-3.862 5.697-3.585 7.805-2.081-0.363 3.486-0.248 4.327 0.52 7.284zm-6.764-5.724c0.838 1.069 2.608 1.207 4.683 1.042 0.405-3.543-3.601-2.671-4.683-1.042z"
  />
<path
      d="m93.153 65.093c-2.073 0.165-3.844 0.028-4.683-1.042 1.082-1.629 5.088-2.501 4.683 1.042z"
      fill="#FFDE00"
  />
<path
      d="m64.535 66.653c2.746-1 5.687 2.282 7.283 4.163-2.217 0.473-4.903-3.065-7.283-4.163z"
  />
<path
      d="m97.836 66.653c2.521-0.515 3.996 1.87 3.123 3.122-2.359 0.275-3.399-0.765-3.124-3.122z"
      fill="#FFDE00"
  />
<path
      d="m121.25 66.653c1.207-0.167 1.999 0.083 2.602 0.521-0.239 2.014-1.158 3.352-3.122 3.642-1.15-1.208 0.1-2.955 0.52-4.163z"
      fill="#FFDE00"
  />
<path
      d="m100.96 80.702c-2.093-0.683-2.499-3.052-3.123-5.203-3.341 2.89-5.864-0.98-8.847-1.562-0.759 1.037 1.708 3.372-0.52 4.684 0.788 2.334 2.659 3.584 4.683 4.683-2.973 1.571-4.638-2.636-6.764-3.643 0.829 2.293 3.39 2.854 4.162 5.203-5.197-2.954-9.244-7.06-13.529-10.927 0-2.601 2.027-3.177 3.644-4.163 1.582 0.5 2.172 1.99 3.122 3.122 0.529 2.264-1.077 2.393-1.562 3.643 0.973-0.415 1.907-0.869 3.123-1.041-0.438 0.604-0.687 1.395-0.521 2.602 6.051 0.501 1.474-5.579-0.521-6.245-0.277-3.226 3.545-2.351 5.204-3.643 1.146 0.764 2.437 1.38 2.082 3.643 1.551-0.183 3.168-0.301 3.642-1.561 3.193 2.185 5.025 5.734 5.725 10.408zm-11.449-8.325c0.161-2.068-0.999-2.817-3.122-2.602-0.615 2.486 1.804 3.66 3.122 2.602zm-10.407 2.081c1.472-0.43 1.35 0.733 2.603 0.52 2.53-3.081-3.683-5.587-2.603-0.52zm13.529-2.081c-0.445 2.315 1.974 3.488 3.122 2.601 0.377-1.591-0.897-1.529-0.521-3.122-1.254-0.212-1.131 0.951-2.601 0.521z"
  />
<path
      d="m86.389 69.775c2.123-0.215 3.283 0.534 3.122 2.602-1.318 1.058-3.737-0.116-3.122-2.602z"
      fill="#FFDE00"
  />
<path
      d="m81.706 74.978c-1.253 0.214-1.131-0.949-2.603-0.52-1.079-5.067 5.134-2.561 2.603 0.52z"
      fill="#FFDE00"
  />
<path
      d="m95.234 71.856c-0.377 1.592 0.897 1.531 0.521 3.122-1.147 0.887-3.566-0.286-3.122-2.601 1.47 0.43 1.347-0.733 2.601-0.521z"
      fill="#FFDE00"
  />
<path
      d="m121.77 71.856c2.812 0.922-0.161 4.085-1.562 4.163-2.28-0.88 1.11-2.802 1.56-4.163z"
      fill="#FFDE00"
  />
<path
      d="m112.4 72.897c0.928 0.381 0.076 0.946 0 1.562-0.92-0.383-0.07-0.947 0-1.562z"
      fill="#FFDE00"
  />
<path
      d="m132.18 76.54c-0.227 3.416-3.25 4.033-6.243 4.683-0.52-0.695-1.406-1.022-1.561-2.082-3.199 1.311-5.006 4.015-8.327 5.204 0.978-5.268 8.617-3.873 9.366-9.367 2.8-1.046 5.29-0.126 6.76 1.562zm-5.72 3.642c1.637 0.249 2.031-0.741 3.121-1.042 0.205-2.112-0.191-3.625-2.079-3.642-2.08 1.577-0.58 3.107-1.04 4.684z"
  />
<path
      d="m127.5 75.499c1.888 0.017 2.284 1.53 2.079 3.642-1.09 0.301-1.484 1.291-3.121 1.042 0.46-1.578-1.04-3.108 1.04-4.684z"
      fill="#FFDE00"
  />
<path
      d="m90.031 78.101c1.536-1.501 3.123 1.36 3.122 3.121-2.084 0.003-1.725-2.437-3.122-3.121z"
  />
<path
      d="m159.23 79.141c-1.14 1.59-3.33-0.6 0 0z"
  />
<path
      d="m101.48 81.743c2.521-0.091 2.891 1.965 3.643 3.643-1.789-0.228-2.918 0.206-4.163 0.521 0.06-1.501-0.28-3.407 0.52-4.164z"
      fill="#FFDE00"
  />
<path
      d="m164.96 82.264c-4.642 2.147-11.293 0.871-17.171 2.601 3.97-3.187 12.24-3.088 17.17-2.601z"
  />
<path
      d="m99.397 85.385c-1.868-0.431-2.517 1.173-3.643 0-0.767-3.181 4.516-3.59 3.643 0z"
      fill="#FFDE00"
  />
<path
      d="m123.33 83.304c0.464 0.229 0.932 0.456 1.042 1.041-0.36 1.938-2.572 4.068-4.685 2.601 0.27-2.17 1.89-2.975 3.65-3.642z"
      fill="#FFDE00"
  />
<path
      d="m131.14 85.385v2.601c-2.133 0.224-3.335-0.481-4.684-1.041 0.43-1.567 2.93-2.929 4.68-1.56z"
      fill="#FFDE00"
  />
<path
      d="m169.64 85.905c-4.314 0.647-13.821-1.081-18.213 1.041-0.58-1.647 2.648-1.303 4.163-1.561 4.13-0.7 10.09-0.459 14.05 0.52z"
  />
<path
      d="m73.9 86.946c0.05 1.61-1.57 1.551-3.122 1.562v-2.081c0.84-0.889 2.683-0.477 3.122 0.519z"
      fill="#FFDE00"
  />
<path
      d="m99.917 85.905c-0.653 3.254 1.668 3.536 2.081 5.724-1.687 0.396-2.124 2.039-2.081 4.163-1.854 0.119-2.722-0.749-2.604-2.602-0.137-1.698 1.62-1.504 2.082-2.602-1.453-1.257-3.537-4.766 0.52-4.683z"
      fill="#FFDE00"
  />
<path
      d="m110.32 85.905c2.073-0.339 1.489 1.979 1.56 3.643-1.64-0.091-1.41-2.058-1.56-3.643z"
      fill="#FFDE00"
  />
<path
      d="m107.72 86.426c-0.406 2.368-2.413 3.134-3.121 5.203-1.619-0.809-2.509-2.347-2.602-4.684 1.68-1.355 3.86 0.839 5.72-0.519z"
      fill="#FFDE00"
  />
<path
      d="m53.087 87.467c4.625 0.405 9.786 0.274 11.968 3.122-2.091-0.337-4.295-0.562-5.723-1.562-2.275-0.327-5.48 0.277-6.245-1.56z"
  />
<path
      d="m170.16 89.027c-11.519-1.078-25.768 2.013-33.823 0 10.68-0.417 23.91-2.073 33.82 0z"
  />
<path
      d="m107.2 89.548c0.994 0.221 0.943 1.486 2.604 1.041 0.433 2.516-0.658 3.506-2.604 3.642-0.8-1.481-1.57-3.562 0-4.683z"
      fill="#FFDE00"
  />
<path
      d="m169.12 92.149c-3.634 0.146-11.615-1.398-16.649 0 4.37-3.468 11.31-1.46 16.65 0z"
  />
<path
      d="m80.665 92.67c-0.018 1.891-1.53 2.286-3.644 2.082-0.963-2.837 2.288-3.178 3.644-2.082z"
      fill="#FFDE00"
  />
<path
      d="m106.16 94.23c-0.759 1.322-0.988 3.172-3.123 3.123-3.453-3.109 0.81-7.372 3.12-3.123z"
      fill="#FFDE00"
  />
<path
      d="m66.095 95.792c-6.598-0.765-15.244-0.694-23.414-1.562 2.979-2.685 7.681-0.379 11.967 0 4.002 0.354 9.037-0.945 11.447 1.562z"
  />
<path
      d="m117.09 93.71c0.555-1.181 3.271-0.198 4.684-0.52-0.55 1.181-3.27 0.199-4.68 0.52z"
      fill="#FFDE00"
  />
<path
      d="m174.32 100.48c-2.26 1.219-3.837-1.455-6.245-2.084-3.29-0.856-7.072-0.308-11.446-0.521 3.562-4.165 9.85 0.817 14.569 0.521-2.771-3.668-10.781-4.213-16.133-3.642 1.018-1.589 4.104-1.685 6.246-1.561 3.047 0.176 8.771 1.873 10.406 3.125 0.228 0.168 0.248 1.312 0.52 1.558 0.37 0.336 2.4 1.39 2.07 2.604z"
  />
<path
      d="m108.76 94.751c1.329 0.058 1.033 1.742 1.041 3.12-1.905 0.113-1.998 0.716-3.644 0-0.19-2.1 1.78-2.034 2.6-3.12z"
      fill="#FFDE00"
  />
<path
      d="m132.18 95.792c0.221 1.086-0.357 1.376-0.519 2.079-1.943 0.561-1.484-1.291-3.123-1.039 0.44-1.177 2.7-1.912 3.64-1.04z"
      fill="#FFDE00"
  />
<path
      d="m97.315 97.354c1.85-0.963 6.22 0.013 6.244 2.603-2.31 0.883-5.621-0.234-6.245-2.603z"
      fill="#FFDE00"
  />
<path
      d="m120.21 96.833c1.728-0.168 1.967 1.156 3.123 1.562 0.303 1.861-1.539 1.582-3.123 1.562 0.26-1.641-1.13-2.037 0-3.124z"
      fill="#FFDE00"
  />
<path
      d="m82.226 99.434c-1.209 0.379-3.887 1.317-3.642-1.041 0.825-0.763 4.13-1.075 3.642 1.041z"
      fill="#FFDE00"
  />
<path
      d="m31.754 100.48h-3.644c0.009 1.549 3.856-0.734 3.122 1.559-3.212-0.26-4.089 1.076-6.763 0 0.864-1.152 2.81 0.102 1.56-2.079 2.006 0.659 5.121-2.104 5.725 0.519z"
  />
<path
      d="m173.28 104.12c-4.586-1.524-10.842-3.435-15.091-3.642 1.238-2.508 3.688-0.48 5.204 0 3.2 1 9.03 0.83 9.89 3.64z"
  />
<path
      d="m113.97 101.52c2.773-1.026 6.165 1.805 8.846 2.603 2.126-0.476 2.748-2.456 5.202-2.603 1.684 1.67 2.515 3.312 1.039 5.724-2.422 0.667-5.812 0.639-5.723-2.601-3.89-0.28-6.4-1.94-9.37-3.12zm11.96 4.68c1.626 0.236 1.664-1.111 1.562-2.602h-1.562c-0.67 0.68-0.67 1.92 0 2.6z"
  />
<path
      d="m157.68 102.56c4.717 1.526 10.582 1.905 13.008 5.726-3.457-1.74-7.782-2.753-11.449-4.162-0.78-0.31-1.82-0.06-1.56-1.57z"
  />
<path
      d="m97.836 103.08c0.891 1.949-0.442 6.136-3.644 5.726 0.749-2.39 1.946-4.31 3.644-5.73z"
  />
<path
      d="m72.34 103.6c-8.874 2.586-19.965 5.687-27.578 7.803 1.183-2.196 4.264-1.951 6.244-2.6 5.821-1.91 12.449-5.65 21.334-5.2z"
  />
<path
      d="m78.063 103.6v2.08c-0.824 0.045-1.984-0.25-2.081 0.521-1.856-1.02-0.412-3.1 2.081-2.6z"
      fill="#FFDE00"
  />
<path
      d="m125.93 103.6h1.562c0.102 1.489 0.062 2.838-1.562 2.602-0.67-0.68-0.67-1.92 0-2.6z"
      fill="#FFDE00"
  />
<path
      d="m31.754 104.12c-0.53 2.069-4.077 1.126-5.725 2.081 0.498-2.11 3.76-1.45 5.725-2.08z"
  />
<path
      d="m99.917 108.8c0.91-0.479 1.146-1.629 1.041-3.123 1.992 1.825-0.306 7.422-1.041 9.885 0.323 1.41 2.174 1.297 2.081 3.123 0.028 2.459-1.719 3.142-3.122 4.164-7.581-3.512 2.144-6.804 1.041-13.01-1.075 1.18-1.064 3.445-2.082 4.684-0.825-2.571 1.858-6.109 1.561-9.885 2.212-0.08 0.591 3.28 0.519 4.18zm-0.52 11.97c0.725-1.553 0.613-3.185-1.04-3.643-0.764 0.82-1.075 4.13 1.04 3.64z"
  />
<path
      d="m115.01 105.16c0.404-1.03 3.354-0.281 3.123 1.042-1.8 0.41-2.2-0.58-3.12-1.04z"
      fill="#FFDE00"
  />
<path
      d="m131.66 107.24c3.774 0.046 8.828 3.307 11.444 6.245-4.41-1.48-7.82-3.97-11.44-6.24z"
  />
<path
      d="m31.233 107.76c-0.125 0.915-0.895 1.187-2.081 1.042-0.524-1.57 1.159-0.92 2.081-1.04z"
  />
<path
      d="m157.68 108.28c5.59 0.825 9.854 2.98 14.048 5.204-0.479 1.416-1.628-0.729-3.123 0 0.388 1.521 2.811 1.006 2.604 3.121-3.962-2.457-8.104-4.729-13.01-6.244 0.06-0.93-0.64-1.1-0.52-2.08z"
  />
<path
      d="m93.673 109.32c2.428 0.881-1.328 1.309-0.521 3.642 2.706 0.449 2.169-2.342 3.122-3.642 2.676 2.074-0.396 6.225-4.163 5.201-1.437-1.94-0.046-4.66 1.562-5.2z"
  />
<path
      d="m113.45 109.84c0.161 2.068-0.999 2.816-3.121 2.604 0.23-1.67 0.79-3.02 3.12-2.6z"
      fill="#FFDE00"
  />
<path
      d="m81.185 112.44c-0.149 1.695-3.946 1.309-4.163 0 0.483-2.02 3.259-0.62 4.163 0z"
      fill="#FFDE00"
  />
<path
      d="m71.819 111.92c1.081 0.293 1.103 0.813 0.521 1.562-5.956 0.982-9.862 4.016-15.61 5.203 3.649-3.63 10.152-4.41 15.089-6.76z"
  />
<path
      d="m87.43 114.52c-0.442 1.121-1.916 1.205-3.643 1.039-1.025-3.73 3.923-5.06 3.643-1.04z"
      fill="#FFDE00"
  />
<path
      d="m120.73 114c-0.395 3.076-2.784 4.151-5.724 4.683-5.52-3.84 2.44-9.49 5.72-4.68zm-6.24 0.52c0.08 3.219 4.232 2.039 4.162-0.521-1.25-1.19-3.15-0.08-4.16 0.52z"
  />
<path
      d="m157.68 112.44c0.013-0.506 0.635-0.404 1.039-0.521 3.822 1.903 8.679 2.77 10.406 6.766-3.67-2.24-7.15-4.66-11.45-6.25z"
  />
<path
      d="m118.65 114c0.07 2.56-4.082 3.738-4.162 0.521 1.01-0.6 2.91-1.71 4.16-0.52z"
      fill="#FFDE00"
  />
<path
      d="m156.63 114.52c2.9 2.129 6.654 3.404 8.325 6.766-1.795-0.6-3.277-2.05-4.685-3.123-1.23-0.94-3.55-1.66-3.65-3.65z"
  />
<path
      d="m30.713 116.6c0.768 1.646-2.99 2.502-2.603 0.521 1.256 0.22 1.133-0.94 2.603-0.52z"
  />
<path
      d="m151.95 116.6c3.417-0.01 5.522 1.422 7.804 3.121 1.062 0.791 2.915 1.549 2.603 3.123-2.233-0.465-1.711-2.129-3.643-0.52-1.668-1.803-3.482-3.456-5.723-4.684-1.501 1.367 4.466 2.431 2.601 4.162-2.07-0.87-3.94-1.94-3.64-5.2z"
  />
<path
      d="m98.357 117.12c1.653 0.458 1.765 2.09 1.04 3.643-2.115 0.5-1.804-2.81-1.04-3.64z"
      fill="#FFDE00"
  />
<path
      d="m154.55 122.85c-2.822-0.476-3.98-2.61-5.723-4.164 1.51-0.29 4.93 1.99 5.72 4.16z"
  />
<path
      d="m33.835 119.73c-1.588 1.017-5.422 1.969-7.284 1.041 1.379-1.23 5.874-1.52 7.284-1.04z"
  />
<path
      d="m145.19 120.25c0.442-1.524 1.675 0.312 2.603 0-0.38 1.79-1.57 0.34-2.6 0z"
  />
<path
      d="m85.349 121.29c0.872 4.347-3.134 8.309-4.164 12.486-0.843-4.32 2.268-9.18 4.164-12.49z"
  />
<path
      d="m26.03 122.85h5.203c-0.357 1.42-5.894 2.22-5.203 0z"
  />
<path
      d="m107.2 122.85c2.069 3.187 4.184 8.928 4.164 12.488-2.45-3.1-3.56-7.54-4.16-12.49z"
  />
<path
      d="m90.031 123.37c2.359 1.985-0.711 5.371-1.561 8.325-0.821 2.855-0.117 7.541-3.122 8.324 1.395-5.72 2.158-12.06 4.683-16.65z"
  />
<path
      d="m34.875 125.97c-3.083-0.166-6.604 1.523-8.847 0.521 2.19-0.47 8.196-3.48 8.847-0.52z"
  />
<path
      d="m101.48 124.41c1.263 0.651 2.214 3.803 2.601 6.246 0.437 2.747 1.023 7.405-1.042 7.805-0.31-3.44-1.13-9.19-1.56-14.05z"
  />
<path
      d="m39.038 134.3c1.093-2.549 6.191-1.092 7.286-3.642-3.514-0.557-7.725 2.677-13.009 2.078 4.486-2.621 11.733-2.484 16.65-4.683 1.582 1.117-1.833 1.597-2.081 2.604 4.675 0.301 10.131-5.779 15.61-4.684-1.278 1.844-5.382 0.863-5.725 3.643-4.503 0.871-9.172 1.58-11.968 4.162-0.929 0.147-1.068-0.491-0.521-0.521-0.802-0.44-4.331 0.84-6.242 1.04z"
  />
<path
      d="m38.519 127.01c-2.569 1.501-9.007 1.636-11.448 1.562 2.256-1.81 8.899-1.74 11.448-1.56z"
  />
<path
      d="m44.241 127.53c-1.379 2.416-5.019 1.483-7.805 2.082-2.025 0.434-3.84 1.782-5.724 1.56 2.384-3.34 9.349-2.09 13.529-3.64z"
  />
<path
      d="m61.933 129.09c0.609 0.085 0.439 0.949 0.521 1.562-7.267 1.059-11.655 4.994-19.772 5.201 5.863-2.8 13.444-3.89 19.251-6.76z"
  />
<path
      d="m137.38 138.46c4.758 3.223 10.411 5.545 12.487 11.445-5.79-2.19-9.23-6.72-12.49-11.44z"
      fill="#41632F"
  />
<path
      d="m52.567 145.74c-0.671 1.931-2.026 3.176-3.643 4.162 1.002-1.59 0.885-4.32 3.643-4.16z"
      fill="#41632F"
  />
<path
      d="m129.05 145.74c1.326 0.063 2.021 0.758 2.084 2.083-1.32-0.06-2.01-0.75-2.08-2.08z"
  />
<path
      d="m130.1 151.47c0.694-1.334 3.35 1.319 2.081 2.081-1.22-0.17-1.17-1.61-2.08-2.08z"
  />
<path
      d="m127.5 152.51c1.797 0.627 2.814 2.036 3.12 4.162-1.5-0.93-2.59-2.27-3.12-4.16z"
  />
<path
      d="m68.177 154.07c2.354 0.345-0.147 3.72-1.561 3.646-0.132-1.87 1.563-1.92 1.561-3.65z"
  />
<path
      d="m70.258 155.11c2.128 1.267-1.284 5.521-2.601 6.765-0.056-3.18 1.823-4.43 2.601-6.77z"
  />
<path
      d="m126.46 155.11c1.936 1.186 2.229 4.015 3.642 5.726-1.43 0.59-4.42-4.09-3.64-5.73z"
  />
<path
      d="m124.89 158.75c1.267 2.896 3.224 5.104 4.162 8.325-2.7-1.2-4.61-5.66-4.16-8.33z"
  />
<path
      d="m70.779 159.27c2.563 1.09-1.2 4.16-1.041 6.246-1.85-2.23 0.798-4.39 1.041-6.25z"
  />
<path
      d="m122.81 160.31c1.528 2.978 2.845 6.174 4.162 9.367-2.5-1.74-4.97-6.02-4.16-9.37z"
  />
<path
      d="m119.69 160.83c2.14 1.932 3.771 6.87 4.162 8.846-2.05-2.29-3.48-5.19-4.16-8.85z"
  />
<path
      d="m72.86 161.36h1.562c-0.456 1.797-0.905 3.604-2.081 4.681-0.231 0.985 0.707 3.136-1.042 2.603-0.835-3.78 1.68-4.22 1.561-7.28z"
  />
<path
      d="m107.72 161.87c2.062 0.366 0.58 4.278 1.562 5.724-2.29 0-2.52-4.11-1.56-5.72z"
  />
<path
      d="m111.36 161.87c0.477 3 2.759 6.942 2.08 9.367-2.23-1.34-3.22-6.35-2.08-9.37z"
  />
<path
      d="m117.61 161.87c2.037 1.952 2.064 5.913 4.162 7.808-2.07 0.15-4.09-4.23-4.16-7.81z"
  />
<path
      d="m75.462 163.96c1.93 0.605-0.749 4.977-0.521 7.286-2.272-1.72-0.139-5.36 0.521-7.29z"
  />
<path
      d="m115.01 163.96c1.718 0.322 1.104 2.409 1.561 3.643 0.571 1.538 1.897 3.073 2.083 4.684-2.93-1.06-3.59-4.39-3.64-8.32z"
  />
<path
      d="m78.063 166.56c2.407 0.393 0.176 4.039 0 5.202-1.884-0.89-0.277-2.75 0-5.2z"
  />
<path
      d="m81.706 169.16c1.173 0.388 0.204 2.918 0.52 4.163-1.893-0.8-1.393-2.61-0.52-4.16z"
  />
<path
      d="m106.68 21.385c1.519 1.218-2.382 1.399-1.561 3.642 4.157-1.859 4.579-7.01 6.762-10.406 3.888-6.043 10.934-13.892 20.294-14.569 12.405-0.896 17.189 10.217 23.415 18.211 7.941 1.251 15.172 3.215 20.814 6.764 3.042 5.587 4.215 11.535 3.642 18.212-0.973 11.297-8.963 18.054-15.09 23.415 2.786 0.869 6.067-2.249 10.406-1.561-0.797 1.458-1.511 2.999-4.162 2.601-1.616 2.399-3.465 1.367-5.725 3.122 4.223 2.471 8.128-0.014 12.487 0.521 13.72 1.681 19.81 15.34 16.65 28.099-0.42 1.688-0.005 3.888-0.521 5.203-1.802 4.604-6.369 6.53-9.886 10.404 2.086 4.941 4.354 9.857 3.644 15.612-1.971 15.922-22.083 22.631-36.944 14.569-0.326 0.146 3.847 3.521 1.042 4.681 1.17 1.084 2.68 1.829 2.602 4.161-1.34 1.19-2.945-0.516-3.123-2.077-3.127-0.171-4.256-2.339-6.763-3.123 0.583 10.47-3.524 22.635-9.888 28.618-2.478 2.328-6.962 5.05-9.366 5.723-8.229 2.311-17.272-4.122-26.536-0.52-1.303 0.506-2.286 1.678-3.644 2.08-5.027 1.498-11.58 0.912-16.13-1.039-5.299-2.274-11.938-7.52-15.089-10.929-5.764-6.237-8.591-17.056-5.203-28.618-0.663-1.168-5.329 2.11-2.602 2.603-3.536 1.294-5.147 6.194-9.366 5.205-1.318-1.966 1.697-3.291 2.082-5.205-5.817 0.647-13.22 1.591-20.293 0.521-10.417-1.574-18.062-6.293-22.375-13.009-2.304-6.825 3.714-13.916 3.123-18.733-0.527-4.279-6.562-7.393-8.326-10.924-3.146-6.31 1.501-15.414 4.162-20.293 1.745-3.198 4.484-8.774 7.286-10.407 1.773-1.034 4.438-0.919 6.763-1.561 2.172-0.599 4.018-1.846 5.725-2.081 10.944-1.506 19.07 3.68 29.139 4.682-6.846-3.653-14.081-5.04-19.772-10.406-9.576-9.028-15.217-33.761-3.643-45.789 3.767-1.089 6.238-3.475 10.927-3.642 4.09-8.429 11.135-14.523 21.356-14.572 17.739-0.083 28.562 14.796 35.383 25.497 2.472-3.252 2.007-9.44 6.243-10.927v6.763c0.82-0.043 1.99 0.251 2.08-0.519zm45.27 55.675c-3.097-0.666-2.584 2.273-4.685 2.602-4.811-0.651-10.718 2.572-14.05 0 5.848-3.542 11.695-2.715 16.651-5.724 3.17-1.922 5.231-6.013 8.324-8.325 1.181-0.881 2.905-1.177 4.163-2.082 2.815-2.022 4.532-5.715 8.326-6.244 5.764-6.217 10.946-21.161 4.682-30.18-5.636-3.729-13.299-5.432-21.332-6.763-5.76-7.125-9.425-19.922-21.854-18.211-20.256 2.785-29.311 32.836-29.14 56.715 0.578 0.984 0.665 2.458 1.042 3.643-1.613 2.764-3.342 3.555-1.042 6.765-1.892 3.299-6.926 1.791-7.805-1.562 0.637-1.792 3.346-1.512 4.163-3.122-2.232-0.673-3.908-5.062 0-5.203-0.82 1.911-0.432 5.117 2.603 4.683 1.021-1.401-1.141-3.098-1.562-4.683 0.44-5.249-1.601-10.636-2.081-16.651-0.553-6.906 0.144-14.46-3.123-19.773-8.853-7.47-14.226-18.017-27.569-19.773-6.913-0.91-16.392 1.117-20.813 6.765-1.827 2.333-1.431 4.854-3.122 6.244-3.289 2.705-7.158 1.489-10.927 4.164-1.402 0.995-1.808 3.24-3.644 3.642-0.811 2.887-1.618 4.513-2.081 6.245-0.246 0.925 0.583 0.489 0.521 1.561-0.051 0.864-1.47 2.058-1.562 3.122-0.778 9.115 2.083 15.649 4.685 20.813 2.661 5.287 5.762 9.108 10.406 11.968 3.721 2.291 7.211 2.268 11.447 3.643 6.583 2.136 12.348 6.523 18.731 9.366 0.018-2.436 4.074-5.115 5.724-2.601-2.111-0.205-3.626 0.189-3.642 2.081 1.001 0.731 2.093 1.374 3.642 1.561 1.438-0.125 0.555-2.568 1.562-3.122 2.184 0.769 1.185 2.012 0.52 3.643h2.603c0.154 1.368-2.02 0.409-1.562 2.081 1.088 0.3 1.485 1.29 3.122 1.041 1.831-1.178-1.674-2.289 0-3.122 2.707-0.452 0.976 3.535 3.123 3.642 0.044 2.21 4.638-0.128 4.682 2.081-1.868 4.057-7.378-1.998-8.846 0.521 0.928 1.846 4.599 0.953 5.204 3.122-5.639-0.432-8.991-3.152-9.367-8.846-4.941 1.924-8.305-2.926-11.968-0.52-6.214-3.376-14.713-7.072-22.374-7.286-4.739-2.562-12.546-3.374-19.252-2.601-4.111 0.473-7.3 2.984-10.927 3.122-5.553 7.278-11.864 13.802-10.926 27.578 1.926 5.831 8.658 7.047 8.846 13.529 0.073 2.562-2.099 5.509-2.603 8.324-0.486 2.728-0.654 8.206 0 9.366 3.545 6.271 13.716 10.455 22.896 11.446 17.392 1.88 29.753-6.792 37.983-15.088 0.792-4.412 3.872-6.533 5.203-10.408 0.04-1.646-2.104-4.096 0-4.684 0.062 1.498-0.282 3.406 0.521 4.162 2.069 0.31 2.568-3.64 4.163-2.078-1.375 3.822-4.941 7.049-6.766 9.885-0.712 1.107-0.832 2.988-1.562 4.162-0.241 0.391-1.281 0.188-1.56 0.521-0.439 0.52-0.104 1.605-0.521 2.081-1.568 1.792-4.146 2.884-5.723 4.685-1.185 5.694-4.289 7.773-4.685 12.486-0.34 4.049 1.12 7.732 2.081 10.406 2.147 5.973 4.18 8.128 7.805 11.447 5.1 4.671 11.677 10.507 21.333 9.886 4.561-0.292 8.113-3.624 13.008-4.162 6.511-0.714 14.108 3.44 20.294 2.603 12.962-1.758 24.554-26.479 15.609-38.504-2.479-3.334-4.199-4.227-6.765-6.246-2.683-2.11-4.655-5.282-7.804-6.242-1.29-4.434-5.621-5.825-5.725-11.446 6.869 6.781 14.467 13.577 22.373 19.252 3.813 2.735 5.532 3.629 10.406 4.683 4.468 0.967 9.801 4.219 14.571 4.164 0.8-0.01 1.886-0.779 3.12-1.043 4.972-1.059 5.26-1.283 8.324-3.642 5.242-4.027 9.456-8.503 8.325-17.69-0.475-3.863-4.84-10.32-4.684-10.928 0.272-1.044 2.431-0.888 4.163-2.082 4.222-2.906 7.101-6.898 7.806-12.486 1.226-9.734-1.833-20.197-7.285-23.416-5.298-3.128-15.886-3.828-22.373-2.601-3.66 0.692-7.688 4.54-11.447 2.081 5.483-0.762 8.771-3.718 11.967-6.765-3.471 0.179-5.75 4.297-8.324 3.643 5.11-3.217 11.403-8.02 13.528-12.488-4.229 4.594-14.591 8.1-14.568 13.529-0.783 1.547-3.771 0.386-4.162 2.081-1.29 0.594 1.54-0.253 1.54 1.552zm-50.47-28.099c0.107-5.192 2.507-9.944 1.039-15.089 1.438 1.485 1.188-1.019 2.081-1.561 0.17-4.679-1.249-7.77-2.081-11.448-2.18 7.966-2.31 19.511-1.04 28.098zm-1.04-13.007c0.141-0.708-0.321-2.031-0.521-1.041-0.144 0.708 0.321 2.031 0.521 1.041zm0.52 33.821c0.873-1.252-0.602-3.636-3.123-3.122-0.276 2.357 0.764 3.397 3.123 3.122zm48.91 80.125c-2.076-5.9-7.729-8.224-12.487-11.445 3.26 4.72 6.7 9.25 12.49 11.44zm-91.58-7.8c0.479-1.115 3.934-1.924 2.602-3.121-0.139 1.45-4.129 1.73-2.602 3.12zm-9.365 7.8c1.615-0.986 2.971-2.231 3.643-4.162-2.759-0.16-2.642 2.57-3.643 4.16z"
  />
<path
      d="m150.39 75.499c0.393-1.695 3.379-0.534 4.162-2.081-0.021-5.43 10.341-8.935 14.568-13.529-2.125 4.468-8.418 9.271-13.528 12.488 2.574 0.654 4.854-3.463 8.324-3.643-3.196 3.047-6.482 6.002-11.966 6.765 3.758 2.459 7.786-1.389 11.446-2.081 6.487-1.227 17.075-0.527 22.373 2.601 5.452 3.219 8.512 13.681 7.285 23.415-0.705 5.588-3.584 9.582-7.806 12.487-1.732 1.194-3.891 1.038-4.163 2.082-0.156 0.606 4.209 7.063 4.684 10.927 1.131 9.188-3.083 13.664-8.325 17.691-3.064 2.357-3.354 2.583-8.324 3.643-1.234 0.262-2.32 1.032-3.12 1.041-4.771 0.055-10.104-3.197-14.571-4.162-4.874-1.055-6.593-1.947-10.406-4.684-7.906-5.675-15.504-12.471-22.373-19.252 0.104 5.621 4.435 7.014 5.725 11.447 3.147 0.959 5.121 4.131 7.804 6.242 2.564 2.02 4.285 2.91 6.765 6.244 8.943 12.026-2.647 36.748-15.609 38.506-6.186 0.838-13.783-3.316-20.294-2.604-4.895 0.538-8.447 3.87-13.007 4.162-9.658 0.621-16.235-5.215-21.333-9.885-3.625-3.32-5.658-5.477-7.806-11.448-0.961-2.674-2.421-6.358-2.081-10.406 0.396-4.713 3.5-6.792 4.685-12.487 1.576-1.799 4.154-2.892 5.723-4.684 0.417-0.477 0.082-1.562 0.521-2.081 0.278-0.332 1.318-0.131 1.56-0.521 0.729-1.176 0.849-3.057 1.562-4.163 1.823-2.835 5.391-6.062 6.766-9.886-1.594-1.561-2.094 2.389-4.163 2.08-0.804-0.757-0.458-2.664-0.521-4.164-2.104 0.59 0.04 3.037 0 4.685-1.331 3.875-4.409 5.996-5.202 10.407-8.231 8.297-20.593 16.969-37.984 15.089-9.179-0.991-19.35-5.177-22.896-11.446-0.654-1.16-0.486-6.64 0-9.365 0.505-2.816 2.676-5.765 2.603-8.326-0.188-6.481-6.919-7.697-8.846-13.528-0.94-13.771 5.37-20.295 10.924-27.576 3.627-0.138 6.815-2.649 10.927-3.122 6.706-0.772 14.513 0.04 19.252 2.601 7.66 0.214 16.16 3.91 22.374 7.286 3.663-2.406 7.025 2.443 11.968 0.52 0.376 5.694 3.729 8.414 9.367 8.846-0.605-2.169-4.276-1.276-5.204-3.122 1.467-2.519 6.978 3.536 8.846-0.521-0.044-2.209-4.638 0.129-4.682-2.081-2.147-0.107-0.416-4.094-3.123-3.642-1.674 0.833 1.831 1.943 0 3.122-1.637 0.249-2.034-0.741-3.122-1.041-0.457-1.672 1.716-0.713 1.562-2.081h-2.603c0.665-1.63 1.665-2.874-0.52-3.643-1.008 0.553-0.125 2.997-1.562 3.122-1.549-0.187-2.64-0.829-3.642-1.561 0.016-1.892 1.53-2.286 3.642-2.081-1.649-2.514-5.706 0.165-5.724 2.601-6.384-2.842-12.147-7.229-18.731-9.366-4.236-1.375-7.727-1.352-11.447-3.643-4.646-2.859-7.745-6.681-10.406-11.968-2.601-5.164-5.462-11.699-4.685-20.813 0.092-1.064 1.512-2.258 1.562-3.122 0.062-1.071-0.768-0.635-0.521-1.561 0.463-1.732 1.271-3.358 2.081-6.245 1.835-0.401 2.24-2.646 3.644-3.642 3.77-2.674 7.638-1.459 10.927-4.164 1.69-1.39 1.294-3.911 3.122-6.244 4.423-5.648 13.901-7.674 20.813-6.765 13.36 1.774 18.733 12.321 27.594 19.791 3.267 5.312 2.57 12.867 3.123 19.773 0.48 6.015 2.521 11.402 2.081 16.651 0.421 1.585 2.581 3.282 1.562 4.683-3.033 0.434-3.423-2.771-2.603-4.683-3.908 0.141-2.232 4.53 0 5.203-0.817 1.61-3.526 1.33-4.163 3.122 0.878 3.353 5.913 4.86 7.805 1.562-2.3-3.21-0.571-4 1.042-6.765-0.377-1.185-0.464-2.658-1.042-3.643-0.171-23.879 8.884-53.93 29.14-56.715 12.431-1.711 16.096 11.087 21.854 18.211 8.033 1.332 15.696 3.034 21.333 6.763 6.265 9.02 1.082 23.963-4.683 30.18-3.794 0.528-5.511 4.222-8.326 6.244-1.258 0.904-2.982 1.201-4.163 2.082-3.093 2.312-5.154 6.402-8.324 8.325-4.956 3.009-10.805 2.182-16.651 5.724 3.332 2.572 9.239-0.651 14.05 0 2.101-0.329 1.588-3.268 4.685-2.602-0.01-1.805-2.84-0.958-1.57-1.561zm-55.676-13.008c-2.107-1.504-8.053-1.781-7.805 2.081 2.359 1.629 4.403 3.574 6.243 5.724 0.141-1.552-1.456-3.168 0.521-3.643 0.556 1.966 0.269 2.798 1.561 3.122-0.768-2.957-0.883-3.798-0.52-7.284zm-25.497-32.261c-0.96-1.641-1.873-3.331-3.642-4.163-0.749 1.537 1.868 3.49 3.642 4.163zm3.643 1.041c-0.376-2.747-2.459-3.784-4.163-5.203 0.715 2.406 2.374 3.87 4.163 5.203zm3.642-1.041c-1.448-1.154-2.307-2.898-3.644-4.163 0.644 1.63 2.298 4.965 3.644 4.163zm2.082-0.521c0.082-0.612-0.09-1.477 0.52-1.56 2.131 1.512 2.316 4.969 4.163 6.763-0.787-3.549-1.938-6.731-4.163-8.845-0.082 1.851-2.697 2.279-0.52 3.642zm-11.968 2.082c-0.686-2.09-2.34-3.211-4.163-4.163 0.743 2.033 2.13 3.421 4.163 4.163zm-3.121 1.041c-0.917-1.7-2.451-5.509-4.685-4.163 1.534 1.415 2.32 3.577 4.685 4.163zm-4.163-0.52c-0.105-1.804-0.435-3.383-2.603-3.123 0.541 1.369 0.421 3.396 2.603 3.123zm27.057 2.601c0.214-1.635-1.182-4.322-2.083-3.122 1.066 0.671 0.55 2.919 2.083 3.122zm5.723 4.163c-0.19-3.104-1.278-5.312-3.121-6.765 0.947 2.348 1.002 5.588 3.121 6.765zm56.718-1.041c3.19-0.616 1.3-2.505 0 0zm1.04 3.123c2.19-0.237 2.496-2.362 3.645-3.643-2.44 0.001-2.81 2.058-3.65 3.643zm-30.18 19.771c6.946-3.667 11.191-9.895 16.131-15.609 1.741-2.016 4.286-3.39 5.725-5.724 0.026-0.896-0.4-1.334-1.04-1.562-5.97 8.596-14.08 15.055-20.81 22.895zm31.22-17.69c2.277-0.673 3.272-2.626 4.684-4.163-2.61 0.331-3.76 2.136-4.68 4.163zm1.04 3.641c0.923-1.866 5.217-3.089 4.161-5.203-0.77 1.783-6.07 4.159-4.16 5.203zm-0.52 3.122c1.501-0.421 6.555-4.532 6.246-6.764-1.7 2.639-4.58 4.095-6.25 6.764zm-37.46 8.846c5.28-2.35 7.615-7.646 9.364-13.528-0.688-0.006-0.478-0.912-1.039-1.041-1.75 5.876-5.29 9.966-8.32 14.569zm-5.21-1.04c3.899-2.347 6.656-8.601 6.765-13.008-2.5 4.079-4.12 9.05-6.76 13.008zm44.23-5.724c-0.817 0.049-1.805-0.07-1.562 1.04 3.404-1.626 5.9-4.158 7.805-7.284-3.17 0.996-4.51 3.824-6.25 6.244zm-68.683 13.009c-3.831-7.096-7.959-13.894-14.049-18.732 4.028 6.899 8.886 12.968 14.049 18.732zm68.163-9.887c2.579-2.283 8.266-4.213 7.804-7.804-2.67 2.525-5.85 4.549-7.8 7.804zm-70.244-4.683c2.632 2.374 3.962 9.417 6.766 9.366-2.323-3.748-3.583-8.557-6.766-11.447v2.081zm67.644 9.887c3.97-0.252 6.598-6.194 10.928-7.805-0.081-0.613 0.089-1.477-0.521-1.562-3.28 3.312-7.16 6.023-10.41 9.367zm-25.5 5.203c6.738-1.587 10.862-5.788 14.048-10.927 0.548-0.029 0.41-0.667-0.521-0.52-3.07 5.259-8.93 7.724-13.53 11.447zm30.7-6.765c-0.987 3.525-7.112 4.673-6.763 7.805 2.255-1.24 4.136-3.847 6.244-5.724 2.026-1.803 5.566-3.036 5.202-5.724-1.13 1.639-2.68 2.869-4.68 3.643zm-90.015 0c5.078 2.553 6.448 8.815 11.968 10.927-3.952-4.546-7.07-9.926-12.486-13.008-0.119 0.983 0.585 1.149 0.518 2.081zm91.055 6.765c-4.206 1.343-6.359 4.741-10.927 5.724 3.391-4.243 11.812-6.224 12.489-11.448-5.361 4.525-9.966 9.808-18.213 11.448-0.051 1.337-2.032 0.743-2.081 2.082 3.25-0.51 5.005-2.299 7.285-1.562-0.671 1.064-2.921 0.549-3.122 2.081 5.49-2.148 10.57-4.7 14.57-8.325zm-45.79-1.041c0.314-1.841-2.695-3.013-3.123-1.041 1.948-0.04 1.775 2.04 2.083 3.643-3.027 0.772-2.701-1.811-2.603-4.164-4.43 1.099-0.119 6.008 1.561 7.286-1.202 2.446-3.489 6.559-2.081 9.886 0.27-4.511 3.667-9.668 4.684-15.089 1.615 1.606 2.456 1.116 4.162 2.082 2.09-0.912 4.682-4.701 1.04-5.724 1.376 3.298-2.523 5.029-3.643 2.601 0.611-1.122 1.079-2.39 1.562-3.642-2.75-0.156-1.93 3.269-3.64 4.162zm8.33 13.008c-0.989 0.224-1.308 1.121-2.604 1.041 0.978-3.704 8.835-0.533 8.846-5.203-1.438-2.969-0.216-2.837 0.521-5.724-1.452-2.978-5.987-2.076-6.764 1.041 0.606 0.78 1.502 1.272 1.56 2.602-2.09 0.843-3.52 2.141-2.601 4.683-2.829 0.639-3.276 3.662-5.726 4.683 0.449 4.868-3.192 4.117-6.241 3.122 0.256-4.289-5.065-3.205-6.766-1.56-2.236-0.713-2.461-3.437-4.163-4.684-1.718 1.979 0.864 2.989 1.041 4.684-1.424 1.698-1.106 5.137-4.162 5.203 0.393 1.862 1.204 3.306 3.122 3.643-0.28-1.247-2.25-3.459 0-4.164 1.084 0.997 2.168 1.995 2.601 3.643-3.062 0.651-1.372 4.555-1.561 5.727-2.414-0.068-3.414-2.353-2.603-4.166-5.814 2.896-14.962-0.746-17.171-6.244-3.002-1.281-7.115-1.443-7.285 2.602 1.617 3.918 6.136-0.633 7.806 2.602-0.29 1.271-2.014 1.108-1.562 3.122 0.337 1.57 2.364 1.451 3.122 2.603-2.031-0.125-0.95 2.866-3.122 2.603-0.995-0.221-2.239-0.188-2.081-1.562 0.11-0.582 0.578-0.809 1.041-1.039 1.686-0.643 0.398 1.684 2.082 1.039-0.924-4.823-5.183-1.648-5.203 0-0.056 4.729 7.207 1.546 9.887 4.163 0.845-1.084 4.905-1.654 6.244-0.521-4.781 3.066-9.63-0.248-14.05 2.604 0.376 4.48 0.972 8.742 3.644 10.925 2.336 0.259 3.898-0.263 5.723-0.519-0.586 2.494 1.985 1.83 2.603 3.123 2.716-0.203 5.345-2.784 3.643-5.727 0.851-1.056 2.375-1.439 2.601-3.119-1.477-0.238-3.628 4.463-6.765 1.561 3.064-0.407 2.883-4.057 5.204-5.205-0.164 0.705-0.741 0.992-0.521 2.082 2.98-0.835 4.886-2.744 6.243-5.204-1.899 0.354-2.537 1.973-4.163 2.604 0.491-1.593 2.532-1.633 2.603-3.645-3.256 1.08-4.566 4.107-8.325 4.684 0.608 1.932-2.248 5.254-4.164 2.603-0.075-2.677 3.352-1.854 4.164-3.642-3.33-0.556-4.558 0.992-6.245 2.078-0.596 2.16 1.095 2.028 1.041 3.646-2.625-0.371-3.798 0.709-5.723 1.038v-2.6c1.59 0.374 1.896-0.533 3.122-0.521 1.835-6.229 11.014-3.974 15.089-8.847-1.079-0.309-3.418 0.645-3.644-0.521 1.188 0.146 1.956-0.125 2.081-1.042-4.308-0.027-9.197 0.527-10.405-2.6 3.443-1.031 6.706 1.445 9.886-1.043 0.6 0.617 0.589 1.841 0.52 3.123 2.2 0.576 3.305 2.246 5.725 2.604 1.934 5.975 8.8-0.212 13.527 0.521 0.215 1.252-0.95 1.131-0.52 2.6 2.443 1.372 5.026 2.604 6.763 4.684-0.151 3.012 2.173 4.854 4.685 3.643-0.229 1.965 1.025 2.443 1.562 3.642 1.871 0.14 2.507-0.961 4.162-1.039 2.677 3.812 7.194 6.79 10.925 9.366 1.457 1.006 3.777 3.866 5.204 2.081-5.843-3.522-10.652-8.079-15.606-12.487-0.318-1.072 0.838-3.615-1.042-3.123-0.961 1.12-0.482 3.682-3.123 3.123-0.798-2.531 1.51-1.961 1.561-3.642-1.804 0.069-0.832-2.638-2.6-2.604 0.207 1.944-0.415 3.055-2.084 3.123-1.626 0.241-2.32-0.451-2.079-2.08 0.415-1.492 3.489-0.326 3.121-2.604-2.189-0.781-5.251-1.086-7.806-2.602-0.358-0.213-3.222-2.775-3.122-3.121 0.785-2.741 9.521 2.088 10.406 2.08 2.527-0.017 3.819-0.51 4.684-3.121-0.997-1.084-1.994-2.168-3.643-2.602-1.846 0.232-2.405 1.755-4.162 2.079-1.468-1.479-5.734-0.16-5.726-3.12 4.366-0.066 10.377-0.977 13.009 1.041 1.102-0.464 1.539-1.585 3.123-1.562-0.593 1.145-1.343 2.127-1.04 4.164 1.271 0.463 2.255 1.213 4.163 1.041 1.092-1.16 2.935-1.573 3.642-3.121 5.619 0.045 12.354 2.94 17.172 0.52-8.06-0.438-14.924-2.076-22.375-3.122-0.413-1.494-1.054-2.762-1.562-4.163 2.418-0.305 3.142 0.711 4.684 0 0.594-1.141 1.343-2.126 1.039-4.163-1.646-2.182-5.427-1.617-7.804-0.521 0.135-1.696-0.618-2.504-2.082-2.601-2.725 0.569-4.561 2.03-5.202 4.682-1.291 0.982-5.517 1.746-4.162 3.643 1.95-2.278 8.426-0.236 10.404-3.643 2.113 0.719 1.693 3.803 1.042 2.081 0.521 1.372 2.119 1.465 1.562 4.684-0.987-0.117-1.15 0.587-2.084 0.52-1.878-0.027-1.077-2.736-2.081-3.642-0.79 4.5-11.211-1.571-9.364 3.122-2.746 0.107-0.265-1.782-2.604-2.081 2.263-1.585 2.675-5.858 0.52-7.806 1.88-2.106 5.88-4.849 6.77-6.229zm0-6.244c-1.104-1.15 0.064-4.575-2.604-4.162 0.347 1.18 1.347 4.362-0.52 4.682-0.438-0.604-0.688-1.395-0.521-2.601-2.047-0.834-0.18 2.246-1.562 2.081-1.271-1.45 0.737-3.166-0.521-4.162-0.58 0.805-1.691 1.083-1.562 2.601-0.387 1.602 1.431 1 1.04 2.602-2.342-0.337-1.909 3.954-4.162 2.082 0.981 1.984-0.462 3.819-1.041 5.724 4.416 1.077 4.266-6.332 8.326-7.285 0.562 1.33-2.239 1.822-0.521 2.602 0.35-2.241 2.79-2.399 3.63-4.164zm-23.416-1.04c-0.473 1.26-2.091 1.377-3.642 1.561 0.354-2.263-0.936-2.879-2.082-3.643-1.659 1.292-5.481 0.417-5.204 3.643 1.995 0.666 6.572 6.746 0.521 6.245-0.166-1.207 0.083-1.999 0.521-2.602-1.216 0.171-2.149 0.625-3.123 1.041 0.485-1.25 2.092-1.378 1.562-3.643-0.95-1.132-1.541-2.622-3.122-3.122-1.615 0.986-3.644 1.562-3.644 4.163 4.285 3.867 8.332 7.974 13.529 10.927-0.772-2.349-3.333-2.91-4.162-5.203 2.125 1.007 3.791 5.213 6.764 3.643-2.022-1.099-3.895-2.349-4.683-4.683 2.229-1.312-0.239-3.647 0.521-4.684 2.981 0.581 5.504 4.452 8.846 1.562 0.624 2.151 1.03 4.52 3.123 5.203-0.7-4.676-2.532-8.225-5.726-10.408zm13.006 31.744c-0.05 0.818 0.069 1.806-1.041 1.562 0.383 2.738 2.884 3.361 3.123 6.242-0.686 0.667-1.916 0.667-2.604 0 0.038 1.771 0.163 3.631-1.039 4.163h-2.082c0.117-0.985-0.586-1.147-0.521-2.082 0.343-0.698 1.112-0.97 2.081-1.041-0.727-2.916 0.049-7.334-3.643-7.282-0.171 7.312 0.506 11.547 3.643 16.129 3.513 0.377 6.259-1.56 5.203-4.164-1.444 0.479-3.051 4.506-4.683 1.562 1.022-1.643 3.569-0.605 2.081-3.643 2.68 2.453 6.544-0.904 6.243-4.683-4.53 0.02-3.59-5.43-6.76-6.77zm-36.421-31.224c-1.598-1.88-4.538-5.162-7.283-4.163 2.379 1.098 5.065 4.636 7.283 4.163zm57.761 1.561c3.568-1.463 7.853-2.208 9.887-5.203-3 1.717-6.77 2.518-9.89 5.203zm-25.5 7.285c-0.944-4.422 2.503-7.199 1.042-10.406-3.39 0.874-4.52 8.644-1.04 10.406zm21.33-4.684c-0.749 5.494-8.39 4.099-9.366 9.367 3.321-1.188 5.128-3.894 8.327-5.204 0.153 1.06 1.041 1.387 1.561 2.082 2.993-0.649 6.018-1.267 6.243-4.683-1.46-1.688-3.95-2.608-6.76-1.562zm-32.257 6.244c0.001-1.761-1.586-4.622-3.122-3.121 1.397 0.684 1.038 3.124 3.122 3.121zm55.677 1.042c-2.927 1.823 0.637 0.136 1.039 0 3.039-1.036 6.386-2.677 6.243-2.602-3.44 0.255-6.24 1.954-7.28 2.602zm10.4-3.123c-3.33-0.6-1.14 1.59 0 0zm-11.44 5.724c5.878-1.73 12.529-0.454 17.171-2.601-4.93-0.487-13.2-0.586-17.17 2.601zm7.8 0.52c-1.515 0.257-4.743-0.086-4.163 1.561 4.392-2.122 13.897-0.393 18.213-1.041-3.96-0.979-9.92-1.22-14.05-0.52zm-96.258 3.642c1.428 1 3.632 1.224 5.723 1.562-2.182-2.848-7.342-2.716-11.968-3.122 0.765 1.837 3.97 1.233 6.245 1.56zm77.008 0c8.057 2.013 22.306-1.078 33.823 0-9.91-2.073-23.14-0.417-33.82 0zm16.13 3.122c5.034-1.398 13.017 0.146 16.649 0-5.34-1.46-12.28-3.468-16.65 0zm-97.822 2.081c-4.286-0.379-8.987-2.685-11.967 0 8.17 0.867 16.816 0.799 23.414 1.562-2.41-2.507-7.445-1.208-11.447-1.562zm117.59 3.642c-0.271-0.245-0.292-1.39-0.52-1.558-1.637-1.252-7.358-2.948-10.406-3.125-2.143-0.124-5.229-0.028-6.246 1.561 5.352-0.571 13.36-0.026 16.133 3.642-4.721 0.297-11.009-4.686-14.569-0.521 4.374 0.214 8.156-0.336 11.446 0.521 2.408 0.629 3.985 3.303 6.245 2.084 0.33-1.214-1.7-2.268-2.08-2.608zm-146.21 2.084c1.25 2.181-0.695 0.927-1.56 2.079 2.674 1.076 3.551-0.26 6.763 0 0.735-2.293-3.112-0.01-3.122-1.559h3.644c-0.605-2.623-3.72 0.14-5.725-0.524zm137.37 0.524c-1.518-0.48-3.966-2.508-5.204 0 4.249 0.207 10.505 2.116 15.091 3.642-0.87-2.81-6.7-2.64-9.89-3.64zm-40.07 4.16c-0.089 3.238 3.301 3.268 5.723 2.601 1.477-2.412 0.645-4.054-1.039-5.724-2.454 0.146-3.076 2.127-5.202 2.603-2.681-0.798-6.071-3.629-8.846-2.603 2.98 1.18 5.49 2.84 9.37 3.12zm35.9-0.52c3.667 1.409 7.992 2.422 11.449 4.162-2.426-3.819-8.291-4.198-13.008-5.726-0.25 1.52 0.79 1.27 1.56 1.57zm-65.037 4.68c3.2 0.41 4.534-3.775 3.644-5.726-1.699 1.43-2.896 3.35-3.644 5.73zm-43.187 0c-1.979 0.647-5.062 0.402-6.244 2.6 7.613-2.116 18.705-5.217 27.578-7.803-8.885-0.45-15.513 3.29-21.334 5.2zm-24.976-2.6c1.647-0.955 5.194-0.012 5.725-2.081-1.966 0.63-5.228-0.03-5.725 2.08zm73.367-1.56c0.298 3.774-2.386 7.312-1.561 9.885 1.017-1.237 1.006-3.504 2.082-4.684 1.103 6.206-8.622 9.498-1.041 13.01 1.404-1.022 3.15-1.705 3.122-4.164 0.093-1.826-1.758-1.713-2.081-3.123 0.735-2.463 3.033-8.06 1.041-9.885 0.105 1.494-0.131 2.646-1.041 3.123 0.07-0.9 1.691-4.26-0.522-4.16zm43.703 8.84c-2.616-2.938-7.67-6.199-11.444-6.245 3.62 2.27 7.03 4.76 11.44 6.24zm-113.95-4.68c1.188 0.145 1.956-0.127 2.081-1.042-0.922 0.12-2.605-0.53-2.081 1.04zm129.04 1.56c4.905 1.515 9.048 3.787 13.01 6.244 0.207-2.115-2.216-1.602-2.604-3.121 1.495-0.729 2.646 1.416 3.123 0-4.194-2.224-8.458-4.379-14.048-5.205-0.11 0.98 0.59 1.15 0.52 2.08zm-66.078 4.16c3.768 1.022 6.839-3.127 4.163-5.201-0.953 1.3-0.416 4.091-3.122 3.642-0.807-2.333 2.948-2.761 0.521-3.642-1.609 0.54-3 3.26-1.562 5.2zm-35.382 4.17c5.748-1.188 9.654-4.22 15.61-5.201 0.581-0.75 0.56-1.271-0.521-1.562-4.937 2.34-11.44 3.12-15.089 6.76zm58.28 0c2.938-0.53 5.329-1.605 5.724-4.683-3.28-4.82-11.24 0.83-5.72 4.68zm54.11 0c-1.729-3.994-6.584-4.86-10.406-6.765-0.404 0.117-1.026 0.017-1.039 0.521 4.31 1.59 7.79 4.01 11.45 6.25zm-8.84-0.52c1.406 1.073 2.89 2.523 4.685 3.123-1.671-3.359-5.425-4.637-8.325-6.766 0.09 1.99 2.41 2.71 3.64 3.65zm-132.17-1.05c-0.388 1.982 3.37 1.125 2.603-0.521-1.471-0.42-1.348 0.74-2.603 0.52zm120.72 1.57c1.741 1.554 2.899 3.688 5.723 4.164-0.79-2.17-4.21-4.45-5.72-4.16zm6.76 3.12c1.865-1.73-4.102-2.795-2.601-4.162 2.239 1.229 4.055 2.881 5.723 4.685 1.932-1.608 1.408 0.055 3.643 0.519 0.312-1.572-1.54-2.33-2.603-3.123-2.28-1.697-4.387-3.129-7.804-3.121-0.3 3.24 1.57 4.31 3.64 5.19zm-129.04-1.04c1.862 0.928 5.696-0.024 7.284-1.041-1.41-0.48-5.905-0.19-7.284 1.04zm121.24-0.52c-0.928 0.312-2.159-1.524-2.603 0 1.03 0.34 2.22 1.79 2.6 0zm-66.605 13.53c1.03-4.18 5.036-8.141 4.164-12.486-1.896 3.31-5.007 8.17-4.164 12.49zm-49.952-10.93h-5.203c-0.691 2.22 4.846 1.42 5.203 0zm80.127 12.49c0.02-3.562-2.095-9.303-4.164-12.488 0.6 4.95 1.71 9.39 4.16 12.49zm-26.011 4.68c3.004-0.783 2.3-5.469 3.122-8.324 0.849-2.954 3.92-6.34 1.562-8.325-2.527 4.58-3.29 10.92-4.684 16.64zm-59.319-13.53c2.242 1.004 5.764-0.687 8.847-0.521-0.653-2.96-6.659 0.05-8.847 0.52zm77.01 11.97c2.065-0.398 1.479-5.057 1.042-7.805-0.387-2.443-1.338-5.594-2.601-6.246 0.43 4.86 1.25 10.61 1.56 14.05zm-57.758-5.2c-0.548 0.029-0.408 0.669 0.521 0.521 2.796-2.58 7.464-3.289 11.968-4.161 0.343-2.778 4.446-1.798 5.725-3.642-5.479-1.098-10.937 4.982-15.61 4.683 0.249-1.009 3.663-1.486 2.081-2.604-4.917 2.197-12.164 2.062-16.65 4.684 5.285 0.598 9.496-2.637 13.009-2.079-1.095 2.55-6.193 1.093-7.286 3.642 1.909-0.2 5.438-1.48 6.242-1.04zm-18.211-4.69c2.441 0.074 8.878-0.061 11.448-1.562-2.549-0.18-9.192-0.25-11.448 1.56zm3.642 2.6c1.883 0.224 3.698-1.126 5.724-1.56 2.787-0.598 6.426 0.334 7.805-2.082-4.181 1.55-11.146 0.3-13.529 3.64zm11.968 4.69c8.117-0.207 12.506-4.145 19.772-5.202-0.082-0.613 0.089-1.479-0.521-1.562-5.806 2.86-13.387 3.95-19.251 6.76zm88.459 11.97c-0.062-1.325-0.758-2.02-2.084-2.083 0.06 1.32 0.75 2.01 2.08 2.08zm1.04 5.72c1.269-0.762-1.387-3.415-2.081-2.081 0.91 0.47 0.86 1.91 2.08 2.08zm-1.56 3.12c-0.306-2.126-1.323-3.535-3.12-4.162 0.53 1.89 1.62 3.23 3.12 4.16zm-64.004 1.04c1.412 0.074 3.914-3.301 1.561-3.645 0.002 1.74-1.693 1.79-1.561 3.65zm1.041 4.16c1.316-1.243 4.729-5.498 2.601-6.765-0.778 2.35-2.657 3.6-2.601 6.77zm62.443-1.04c-1.412-1.711-1.706-4.54-3.642-5.727-0.78 1.65 2.21 6.33 3.64 5.73zm-1.05 6.25c-0.938-3.223-2.896-5.43-4.162-8.325-0.45 2.66 1.46 7.12 4.16 8.32zm-59.312-1.56c-0.159-2.086 3.604-5.156 1.041-6.246-0.243 1.86-2.891 4.02-1.041 6.25zm57.242 4.16c-1.317-3.193-2.634-6.391-4.162-9.367-0.82 3.35 1.65 7.63 4.16 9.37zm-3.13 0c-0.392-1.976-2.022-6.914-4.162-8.846 0.68 3.66 2.11 6.56 4.16 8.85zm-52.552-1.04c1.749 0.532 0.811-1.617 1.042-2.604 1.176-1.077 1.625-2.883 2.081-4.682h-1.562c0.12 3.06-2.395 3.5-1.561 7.28zm37.982-1.04c-0.982-1.443 0.5-5.355-1.562-5.723-0.96 1.6-0.73 5.71 1.56 5.72zm4.17 3.64c0.679-2.425-1.604-6.367-2.08-9.367-1.15 3.02-0.16 8.03 2.08 9.37zm8.32-1.56c-2.098-1.894-2.125-5.854-4.162-7.807 0.07 3.58 2.09 7.96 4.16 7.81zm-46.829 1.56c-0.228-2.312 2.451-6.681 0.521-7.286-0.66 1.94-2.793 5.58-0.521 7.29zm43.709 1.04c-0.186-1.609-1.512-3.146-2.083-4.685-0.457-1.231 0.157-3.318-1.561-3.642 0.05 3.93 0.71 7.26 3.64 8.32zm-40.587-0.52c0.176-1.163 2.407-4.811 0-5.202-0.277 2.45-1.884 4.31 0 5.2zm4.163 1.56c-0.315-1.245 0.653-3.775-0.52-4.163-0.873 1.55-1.373 3.36 0.52 4.16z"
      fill="#FAD8DC"
  />
<path
      d="m72.86 26.068c1.337 1.264 2.194 3.009 3.644 4.163-1.348 0.801-3.002-2.534-3.644-4.163z"
  />
<path
      d="m84.307 31.791c0.901-1.201 2.296 1.486 2.083 3.122-1.534-0.203-1.018-2.451-2.083-3.122z"
  />
<path
      d="m148.83 38.035c1.3-2.505 3.19-0.616 0 0z"
  />
<path
      d="m159.23 45.84c-1.903 3.126-4.399 5.658-7.805 7.284-0.241-1.109 0.745-0.991 1.562-1.04 1.75-2.42 3.09-5.248 6.25-6.244z"
  />
<path
      d="m141.54 73.938c0.201-1.532 2.451-1.017 3.122-2.081-2.28-0.738-4.035 1.051-7.285 1.562 0.049-1.338 2.03-0.745 2.081-2.082 8.247-1.64 12.852-6.922 18.213-11.448-0.678 5.224-9.1 7.205-12.489 11.448 4.566-0.982 6.72-4.38 10.927-5.724-4 3.625-9.08 6.177-14.57 8.325z"
  />
<path
      d="m111.88 83.824c2.155 1.947 1.743 6.221-0.52 7.806 2.339 0.299-0.144 2.188 2.604 2.081-1.847-4.693 8.574 1.378 9.364-3.122 1.004 0.904 0.203 3.613 2.081 3.642 0.934 0.067 1.097-0.636 2.084-0.52 0.557-3.218-1.042-3.312-1.562-4.684 0.651 1.722 1.071-1.362-1.042-2.081-1.979 3.407-8.454 1.365-10.404 3.643-1.354-1.897 2.871-2.66 4.162-3.643 0.643-2.652 2.479-4.113 5.202-4.682 1.464 0.097 2.217 0.905 2.082 2.601 2.377-1.097 6.156-1.661 7.804 0.521 0.304 2.036-0.445 3.021-1.038 4.163-1.542 0.711-2.267-0.305-4.685 0 0.508 1.401 1.147 2.669 1.562 4.163 7.451 1.046 14.315 2.685 22.375 3.122-4.817 2.422-11.553-0.475-17.172-0.52-0.706 1.547-2.55 1.961-3.642 3.121-1.908 0.172-2.893-0.578-4.163-1.041-0.303-2.037 0.447-3.021 1.04-4.164-1.584-0.021-2.021 1.1-3.123 1.562-2.632-2.018-8.643-1.107-13.009-1.041-0.01 2.96 4.258 1.641 5.726 3.12 1.758-0.324 2.316-1.847 4.162-2.079 1.647 0.434 2.646 1.518 3.643 2.602-0.863 2.611-2.155 3.104-4.684 3.121-0.886 0.008-9.621-4.822-10.405-2.08-0.101 0.346 2.763 2.908 3.121 3.121 2.555 1.516 5.615 1.819 7.806 2.602 0.368 2.275-2.706 1.109-3.121 2.603-0.241 1.63 0.453 2.322 2.079 2.081 1.669-0.068 2.291-1.179 2.084-3.123 1.768-0.033 0.796 2.676 2.6 2.604-0.051 1.681-2.357 1.108-1.561 3.642 2.641 0.559 2.162-2.003 3.123-3.123 1.88-0.492 0.724 2.051 1.042 3.123 4.954 4.408 9.765 8.965 15.606 12.487-1.427 1.784-3.747-1.075-5.204-2.081-3.729-2.576-8.248-5.555-10.925-9.366-1.655 0.078-2.291 1.179-4.162 1.039-0.536-1.198-1.791-1.677-1.562-3.642-2.511 1.211-4.836-0.631-4.685-3.643-1.735-2.078-4.318-3.312-6.763-4.684-0.432-1.469 0.733-1.348 0.521-2.6-4.729-0.732-11.596 5.453-13.528-0.521-2.42-0.355-3.524-2.025-5.725-2.604 0.069-1.283 0.08-2.507-0.52-3.123-3.181 2.488-6.442 0.012-9.886 1.043 1.208 3.127 6.099 2.571 10.405 2.6-0.125 0.917-0.895 1.188-2.08 1.042 0.224 1.164 2.563 0.212 3.643 0.521-4.076 4.873-13.254 2.617-15.089 8.847-1.227-0.013-1.532 0.896-3.122 0.521v2.6c1.925-0.33 3.098-1.409 5.723-1.039 0.055-1.615-1.636-1.483-1.041-3.645 1.688-1.086 2.916-2.634 6.245-2.078-0.812 1.786-4.239 0.965-4.164 3.642 1.916 2.651 4.772-0.671 4.164-2.603 3.759-0.576 5.068-3.604 8.325-4.684-0.07 2.012-2.111 2.052-2.602 3.645 1.626-0.632 2.262-2.248 4.162-2.604-1.356 2.46-3.263 4.368-6.243 5.204-0.221-1.09 0.355-1.377 0.521-2.082-2.321 1.148-2.14 4.798-5.204 5.205 3.137 2.902 5.288-1.799 6.766-1.562-0.227 1.681-1.75 2.064-2.602 3.12 1.702 2.941-0.926 5.521-3.643 5.727-0.617-1.293-3.188-0.629-2.603-3.123-1.824 0.256-3.387 0.776-5.723 0.519-2.672-2.183-3.268-6.444-3.644-10.925 4.421-2.852 9.269 0.464 14.05-2.604-1.338-1.135-5.399-0.563-6.244 0.521-2.68-2.617-9.942 0.565-9.886-4.163 0.02-1.648 4.278-4.823 5.202 0-1.684 0.645-0.396-1.682-2.082-1.039-0.462 0.23-0.93 0.457-1.041 1.039-0.158 1.374 1.086 1.343 2.081 1.562 2.172 0.265 1.092-2.728 3.122-2.603-0.758-1.149-2.785-1.031-3.122-2.603-0.451-2.013 1.271-1.851 1.562-3.122-1.67-3.235-6.188 1.316-7.805-2.602 0.168-4.045 4.281-3.883 7.284-2.602 2.209 5.498 11.355 9.14 17.171 6.244-0.812 1.813 0.188 4.097 2.603 4.166 0.188-1.172-1.501-5.074 1.561-5.727-0.433-1.648-1.517-2.646-2.601-3.643-2.25 0.704-0.28 2.917 0 4.164-1.918-0.336-2.729-1.781-3.122-3.643 3.056-0.066 2.738-3.505 4.162-5.203-0.177-1.695-2.758-2.705-1.041-4.684 1.701 1.247 1.927 3.97 4.163 4.684 1.699-1.645 7.021-2.729 6.766 1.56 3.049 0.995 6.69 1.746 6.241-3.122 2.448-1.021 2.896-4.044 5.726-4.683-0.919-2.542 0.511-3.84 2.601-4.683-0.058-1.33-0.952-1.822-1.56-2.602 0.775-3.117 5.312-4.019 6.764-1.041-0.736 2.887-1.96 2.755-0.521 5.724-0.011 4.67-7.868 1.499-8.846 5.203 1.296 0.08 1.613-0.817 2.604-1.041-0.9 1.38-4.9 4.123-6.78 6.244zm8.85-13.008c1.964-0.29 2.883-1.627 3.122-3.642-0.603-0.438-1.395-0.688-2.602-0.521-0.42 1.208-1.67 2.955-0.52 4.163zm-0.52 5.203c1.4-0.078 4.374-3.241 1.562-4.163-0.45 1.361-3.84 3.283-1.56 4.163zm-19.25 9.886c1.245-0.314 2.374-0.748 4.163-0.521-0.752-1.678-1.122-3.733-3.643-3.643-0.8 0.759-0.46 2.665-0.52 4.164zm-5.206-0.52c1.125 1.173 1.773-0.431 3.643 0 0.873-3.59-4.41-3.181-3.643 0zm23.936 1.561c2.111 1.467 4.323-0.664 4.685-2.601-0.11-0.584-0.578-0.811-1.042-1.041-1.77 0.667-3.39 1.472-3.65 3.642zm6.77 0c1.349 0.559 2.551 1.264 4.684 1.041v-2.601c-1.75-1.37-4.25-0.008-4.68 1.56zm-55.681-0.52v2.081c1.552-0.011 3.171 0.049 3.122-1.562-0.44-0.995-2.283-1.407-3.122-0.519zm28.618 4.162c-0.462 1.098-2.219 0.904-2.082 2.602-0.119 1.853 0.749 2.721 2.604 2.602-0.043-2.125 0.396-3.768 2.081-4.163-0.413-2.188-2.734-2.47-2.081-5.724-4.059-0.083-1.975 3.426-0.522 4.683zm12.483-1.04c-0.069-1.664 0.515-3.981-1.56-3.643 0.15 1.585-0.08 3.552 1.56 3.643zm-9.88-2.602c0.093 2.336 0.981 3.875 2.602 4.684 0.708-2.069 2.715-2.835 3.121-5.203-1.86 1.357-4.04-0.837-5.72 0.519zm5.2 7.284c1.944-0.137 3.035-1.126 2.604-3.643-1.659 0.446-1.608-0.819-2.604-1.041-1.57 1.123-0.8 3.204 0 4.684zm-30.178 0.521c2.113 0.204 3.625-0.19 3.644-2.082-1.357-1.095-4.608-0.754-3.644 2.082zm26.018 2.603c2.135 0.049 2.364-1.801 3.123-3.123-2.31-4.25-6.573 0.013-3.12 3.123zm18.73-4.164c-1.412 0.322-4.129-0.661-4.684 0.52 1.41-0.321 4.13 0.661 4.68-0.52zm-15.61 4.682c1.646 0.716 1.737 0.114 3.644 0-0.008-1.378 0.288-3.062-1.041-3.12-0.82 1.085-2.79 1.019-2.6 3.12zm22.38-1.039c1.639-0.252 1.18 1.599 3.123 1.039 0.16-0.703 0.738-0.993 0.519-2.079-0.94-0.873-3.2-0.138-3.64 1.04zm-24.98 3.123c-0.024-2.59-4.396-3.565-6.244-2.603 0.623 2.37 3.934 3.487 6.244 2.603zm16.65 0c1.584 0.021 3.426 0.3 3.123-1.562-1.156-0.404-1.396-1.729-3.123-1.562-1.13 1.088 0.26 1.484 0 3.124zm-41.626-1.563c-0.246 2.358 2.433 1.42 3.642 1.041 0.488-2.116-2.817-1.804-3.642-1.041zm-2.602 7.807c0.097-0.771 1.257-0.477 2.081-0.521v-2.08c-2.493-0.5-3.937 1.58-2.081 2.6zm42.148 0c0.23-1.323-2.719-2.072-3.123-1.042 0.92 0.46 1.32 1.45 3.12 1.04zm-41.108 6.24c0.217 1.309 4.013 1.695 4.163 0-0.904-0.62-3.68-2.02-4.163 0zm6.765 3.12c1.727 0.166 3.199 0.082 3.643-1.039 0.28-4.02-4.668-2.69-3.643 1.04z"
  />
<path
      d="m115.01 75.499c-1.719-0.78 1.082-1.272 0.521-2.602-4.062 0.954-3.91 8.362-8.326 7.285 0.579-1.904 2.022-3.74 1.041-5.724 2.253 1.873 1.82-2.419 4.162-2.082 0.391-1.602-1.427-1-1.04-2.602-0.131-1.518 0.98-1.795 1.562-2.601 1.258 0.996-0.752 2.712 0.521 4.162 1.382 0.165-0.485-2.915 1.562-2.081-0.167 1.207 0.083 1.998 0.521 2.601 1.865-0.32 0.865-3.502 0.52-4.682 2.668-0.413 1.499 3.012 2.604 4.162-0.83 1.766-3.27 1.924-3.63 4.164zm-2.61-1.041c0.076-0.615 0.928-1.181 0-1.562-0.07 0.616-0.92 1.18 0 1.562z"
  />
<path
      d="m139.46 67.174c-2.034 2.995-6.317 3.74-9.887 5.203 3.13-2.685 6.9-3.486 9.89-5.203z"
  />
<path
      d="m156.11 79.662c0.143-0.075-3.204 1.566-6.243 2.602-0.402 0.136-3.966 1.823-1.039 0 1.04-0.648 3.84-2.347 7.28-2.602z"
  />
<path
      d="m60.892 138.98c1.332 1.197-2.124 2.006-2.602 3.121-1.527-1.39 2.463-1.67 2.602-3.12z"
      fill="#41632F"
  />
<path
      d="m105.12 69.255c1.461 3.208-1.986 5.984-1.042 10.406-3.48-1.761-2.35-9.531 1.04-10.406z"
  />
<path
      d="m115.01 108.8c0.301 3.777-3.563 7.135-6.243 4.684 1.488 3.035-1.059 1.998-2.081 3.642 1.632 2.942 3.237-1.084 4.684-1.562 1.055 2.604-1.691 4.539-5.204 4.162-3.137-4.582-3.812-8.815-3.643-16.129 3.69-0.051 2.916 4.367 3.643 7.283-0.969 0.071-1.738 0.344-2.081 1.041-0.065 0.936 0.638 1.098 0.521 2.082h2.082c1.202-0.531 1.077-2.393 1.039-4.163 0.688 0.667 1.918 0.667 2.604 0-0.239-2.881-2.74-3.504-3.123-6.243 1.11 0.243 0.991-0.742 1.041-1.562 3.16 1.35 2.22 6.8 6.76 6.77zm-4.69 3.64c2.122 0.214 3.282-0.534 3.121-2.604-2.32-0.42-2.88 0.93-3.12 2.6z"
  />
<!--<metadata-->
<!--    ><rdf:RDF-->
<!--      ><cc:Work-->
<!--        ><dc:format-->
<!--          >image/svg+xml</dc:format-->
<!--        ><dc:type-->
<!--            rdf:resource="http://purl.org/dc/dcmitype/StillImage"-->
<!--        /><cc:license-->
<!--            rdf:resource="http://creativecommons.org/licenses/publicdomain/"-->
<!--        /><dc:publisher-->
<!--          ><cc:Agent-->
<!--              rdf:about="http://openclipart.org/"-->
<!--            ><dc:title-->
<!--              >Openclipart</dc:title-->
<!--            ></cc:Agent-->
<!--          ></dc:publisher-->
<!--        ><dc:title-->
<!--          >wild rose</dc:title-->
<!--        ><dc:date-->
<!--          >2009-02-23T23:42:28</dc:date-->
<!--        ><dc:description-->
<!--          >Harmsworth's&#13;\nUNIVERSAL&#13;\nENCYCLOPEDIA&#13;\nWritten by the Leading Authorities&#13;\nin Every Branch of Knowledge and&#13;\nedited by J. A. Hammerton&#13;\n&#13;\n1900</dc:description-->
<!--        ><dc:source-->
<!--          >https://openclipart.org/detail/21650/wild-rose-by-johnny_automatic-21650</dc:source-->
<!--        ><dc:creator-->
<!--          ><cc:Agent-->
<!--            ><dc:title-->
<!--              >johnny_automatic</dc:title-->
<!--            ></cc:Agent-->
<!--          ></dc:creator-->
<!--        ><dc:subject-->
<!--          ><rdf:Bag-->
<!--            ><rdf:li-->
<!--              >externalsource</rdf:li-->
<!--            ><rdf:li-->
<!--              >flower</rdf:li-->
<!--            ><rdf:li-->
<!--              >plant</rdf:li-->
<!--            ><rdf:li-->
<!--              >rose</rdf:li-->
<!--            ><rdf:li-->
<!--              >wild</rdf:li-->
<!--            ></rdf:Bag-->
<!--          ></dc:subject-->
<!--        ></cc:Work-->
<!--      ><cc:License-->
<!--          rdf:about="http://creativecommons.org/licenses/publicdomain/"-->
<!--        ><cc:permits-->
<!--            rdf:resource="http://creativecommons.org/ns#Reproduction"-->
<!--        /><cc:permits-->
<!--            rdf:resource="http://creativecommons.org/ns#Distribution"-->
<!--        /><cc:permits-->
<!--            rdf:resource="http://creativecommons.org/ns#DerivativeWorks"-->
<!--        /></cc:License-->
<!--      ></rdf:RDF-->
<!--    ></metadata>-->
</svg>
